<svg xmlns="http://www.w3.org/2000/svg" width="1600" height="2400" viewBox="0 0 1600 2400"><defs><linearGradient id="g" x1="0" y1="0" x2="0" y2="1"><stop stop-color="#07111f"/><stop offset="1" stop-color="#12294a"/></linearGradient><radialGradient id="r"><stop stop-color="#75e6ff" stop-opacity=".95"/><stop offset=".35" stop-color="#3a7ef0" stop-opacity=".45"/><stop offset="1" stop-color="#0b1422" stop-opacity="0"/></radialGradient></defs><rect width="1600" height="2400" fill="url(#g)"/><circle cx="800" cy="1180" r="610" fill="url(#r)"/><g fill="none" stroke="#7edfff" opacity=".55"><circle cx="800" cy="1180" r="420" stroke-width="4"/><circle cx="800" cy="1180" r="300" stroke-width="3"/><circle cx="800" cy="1180" r="180" stroke-width="2"/><path d="M250 1180H1350M800 630V1730" stroke-width="3"/></g><path d="M180 1760 L390 1570 L520 1660 L690 1450 L850 1580 L1050 1390 L1420 1740 L1420 2020 L180 2020Z" fill="#09131f"/><g fill="#10263c"><rect x="310" y="1650" width="110" height="370"/><rect x="455" y="1590" width="150" height="430"/><rect x="650" y="1700" width="95" height="320"/><rect x="980" y="1600" width="130" height="420"/><rect x="1150" y="1680" width="100" height="340"/></g><circle cx="800" cy="1180" r="32" fill="#e9fbff"/><text x="800" y="250" fill="#72ddff" font-family="Arial,sans-serif" font-size="42" text-anchor="middle" letter-spacing="12">RUNLU ORIGINAL</text><text x="800" y="470" fill="#ffffff" font-family="Georgia,serif" font-size="118" font-weight="700" text-anchor="middle">THE TOMORROW</text><text x="800" y="600" fill="#ffffff" font-family="Georgia,serif" font-size="118" font-weight="700" text-anchor="middle">PROTOCOL</text><text x="800" y="760" fill="#9bdfff" font-family="Arial,sans-serif" font-size="44" text-anchor="middle" letter-spacing="9">COMPLETE 14-VOLUME SERIES</text><text x="800" y="2130" fill="#ffffff" font-family="Georgia,serif" font-size="54" text-anchor="middle">John Zhang</text><text x="800" y="2210" fill="#7ac9ef" font-family="Arial,sans-serif" font-size="30" text-anchor="middle" letter-spacing="8">TECHNOLOGY · LEGITIMACY · HUMAN CHOICE</text></svg>